<svg xmlns="http://www.w3.org/2000/svg" viewBox="0 0 32 18" width="480" height="270">
<rect width="32" height="18" fill="#f0f9ff" stroke="#93c5fd"/>
<rect x="1" y="0.5" width="30" height="17" fill="none" stroke="#60a5fa" stroke-dasharray="0.5 0.5"/>
<line x1="16" y1="0.5" x2="16" y2="17" stroke="#bfdbfe" stroke-width="0.2"/>
<line x1="0.5" y1="9" x2="31" y2="9" stroke="#bfdbfe" stroke-width="0.2"/>
<circle cx="20.8" cy="9" r="0.4" fill="#3b82f6" opacity="0.9"/>
<circle cx="22.2" cy="9" r="0.4" fill="#3b82f6" opacity="0.9"/>
<circle cx="23.6" cy="9" r="0.4" fill="#3b82f6" opacity="0.9"/>
<circle cx="24.6" cy="9" r="0.4" fill="#3b82f6" opacity="0.9"/>
<circle cx="16" cy="13.8" r="0.4" fill="#3b82f6" opacity="0.9"/>
<circle cx="16" cy="15.2" r="0.4" fill="#3b82f6" opacity="0.9"/>
<circle cx="16" cy="16.6" r="0.4" fill="#3b82f6" opacity="0.9"/>
<circle cx="16" cy="17.6" r="0.4" fill="#3b82f6" opacity="0.9"/>
<circle cx="11.2" cy="9" r="0.4" fill="#3b82f6" opacity="0.9"/>
<circle cx="9.8" cy="9" r="0.4" fill="#3b82f6" opacity="0.9"/>
<circle cx="8.4" cy="9" r="0.4" fill="#3b82f6" opacity="0.9"/>
<circle cx="7.4" cy="9" r="0.4" fill="#3b82f6" opacity="0.9"/>
<circle cx="16" cy="4.2" r="0.4" fill="#3b82f6" opacity="0.9"/>
<circle cx="16" cy="2.8" r="0.4" fill="#3b82f6" opacity="0.9"/>
<circle cx="16" cy="1.4" r="0.4" fill="#3b82f6" opacity="0.9"/>
<circle cx="16" cy="0.4" r="0.4" fill="#3b82f6" opacity="0.9"/>
<circle cx="19.394" cy="12.394" r="0.4" fill="#3b82f6" opacity="0.9"/>
<circle cx="20.384" cy="13.384" r="0.4" fill="#3b82f6" opacity="0.9"/>
<circle cx="21.374" cy="14.374" r="0.4" fill="#3b82f6" opacity="0.9"/>
<circle cx="22.081" cy="15.081" r="0.4" fill="#3b82f6" opacity="0.9"/>
<circle cx="12.606" cy="12.394" r="0.4" fill="#3b82f6" opacity="0.9"/>
<circle cx="11.616" cy="13.384" r="0.4" fill="#3b82f6" opacity="0.9"/>
<circle cx="10.626" cy="14.374" r="0.4" fill="#3b82f6" opacity="0.9"/>
<circle cx="9.919" cy="15.081" r="0.4" fill="#3b82f6" opacity="0.9"/>
<circle cx="12.606" cy="5.606" r="0.4" fill="#3b82f6" opacity="0.9"/>
<circle cx="11.616" cy="4.616" r="0.4" fill="#3b82f6" opacity="0.9"/>
<circle cx="10.626" cy="3.626" r="0.4" fill="#3b82f6" opacity="0.9"/>
<circle cx="9.919" cy="2.919" r="0.4" fill="#3b82f6" opacity="0.9"/>
<circle cx="19.394" cy="5.606" r="0.4" fill="#3b82f6" opacity="0.9"/>
<circle cx="20.384" cy="4.616" r="0.4" fill="#3b82f6" opacity="0.9"/>
<circle cx="21.374" cy="3.626" r="0.4" fill="#3b82f6" opacity="0.9"/>
<circle cx="22.081" cy="2.919" r="0.4" fill="#3b82f6" opacity="0.9"/>
<circle cx="13.4" cy="6.4" r="0.4" fill="#eab308" opacity="0.9"/>
<circle cx="14.7" cy="6.4" r="0.4" fill="#eab308" opacity="0.9"/>
<circle cx="16" cy="6.4" r="0.4" fill="#eab308" opacity="0.9"/>
<circle cx="17.3" cy="6.4" r="0.4" fill="#eab308" opacity="0.9"/>
<circle cx="18.6" cy="6.4" r="0.4" fill="#eab308" opacity="0.9"/>
<circle cx="13.4" cy="7.7" r="0.4" fill="#eab308" opacity="0.9"/>
<circle cx="14.7" cy="7.7" r="0.4" fill="#eab308" opacity="0.9"/>
<circle cx="16" cy="7.7" r="0.4" fill="#eab308" opacity="0.9"/>
<circle cx="17.3" cy="7.7" r="0.4" fill="#eab308" opacity="0.9"/>
<circle cx="18.6" cy="7.7" r="0.4" fill="#eab308" opacity="0.9"/>
<circle cx="13.4" cy="9" r="0.4" fill="#eab308" opacity="0.9"/>
<circle cx="14.7" cy="9" r="0.4" fill="#eab308" opacity="0.9"/>
<circle cx="16" cy="9" r="0.4" fill="#eab308" opacity="0.9"/>
<circle cx="17.3" cy="9" r="0.4" fill="#eab308" opacity="0.9"/>
<circle cx="18.6" cy="9" r="0.4" fill="#eab308" opacity="0.9"/>
<circle cx="13.4" cy="10.3" r="0.4" fill="#eab308" opacity="0.9"/>
<circle cx="14.7" cy="10.3" r="0.4" fill="#eab308" opacity="0.9"/>
<circle cx="16" cy="10.3" r="0.4" fill="#eab308" opacity="0.9"/>
<circle cx="17.3" cy="10.3" r="0.4" fill="#eab308" opacity="0.9"/>
<circle cx="18.6" cy="10.3" r="0.4" fill="#eab308" opacity="0.9"/>
<circle cx="13.4" cy="11.6" r="0.4" fill="#eab308" opacity="0.9"/>
<circle cx="14.7" cy="11.6" r="0.4" fill="#eab308" opacity="0.9"/>
<circle cx="16" cy="11.6" r="0.4" fill="#eab308" opacity="0.9"/>
<circle cx="17.3" cy="11.6" r="0.4" fill="#eab308" opacity="0.9"/>
<circle cx="18.6" cy="11.6" r="0.4" fill="#eab308" opacity="0.9"/>
<circle cx="7" cy="12" r="0.4" fill="#a21caf" opacity="0.9"/>
<circle cx="25" cy="12" r="0.4" fill="#a21caf" opacity="0.9"/>
<circle cx="7" cy="6" r="0.4" fill="#a21caf" opacity="0.9"/>
<circle cx="25" cy="6" r="0.4" fill="#a21caf" opacity="0.9"/>
<circle cx="16" cy="15" r="0.4" fill="#a21caf" opacity="0.9"/>
<circle cx="16" cy="9" r="0.22" fill="#ef4444" opacity="0.9"/>
<circle cx="27.8" cy="1.4" r="0.5" fill="#3b82f6"/>
<text x="28.7" y="1.75" font-size="1.1" fill="#334155">蝴蝶鱼</text>
<circle cx="27.8" cy="2.75" r="0.5" fill="#eab308"/>
<text x="28.7" y="3.1" font-size="1.1" fill="#334155">小丑鱼</text>
<circle cx="27.8" cy="4.1" r="0.5" fill="#a21caf"/>
<text x="28.7" y="4.45" font-size="1.1" fill="#334155">狂战先锋</text>
</svg>
