<svg xmlns="http://www.w3.org/2000/svg" viewBox="0 0 32 18" width="480" height="270">
  <rect width="32" height="18" fill="#f8fafc" stroke="#cbd5e1"/>
  <line x1="16" y1="0.6" x2="16" y2="16" stroke="#e2e8f0" stroke-width="0.25"/>
  <line x1="1" y1="9" x2="30" y2="9" stroke="#e2e8f0" stroke-width="0.25"/>
<circle cx="7.509" cy="1.5" r="0.5" fill="#3b82f6" opacity="0.9"/>
<circle cx="9.396" cy="1.713" r="0.5" fill="#3b82f6" opacity="0.9"/>
<circle cx="11.283" cy="2.328" r="0.5" fill="#3b82f6" opacity="0.9"/>
<circle cx="13.17" cy="3.269" r="0.5" fill="#3b82f6" opacity="0.9"/>
<circle cx="15.057" cy="4.423" r="0.5" fill="#3b82f6" opacity="0.9"/>
<circle cx="16.943" cy="5.652" r="0.5" fill="#3b82f6" opacity="0.9"/>
<circle cx="18.83" cy="6.807" r="0.5" fill="#3b82f6" opacity="0.9"/>
<circle cx="20.717" cy="7.748" r="0.5" fill="#3b82f6" opacity="0.9"/>
<circle cx="22.604" cy="8.362" r="0.5" fill="#3b82f6" opacity="0.9"/>
<circle cx="24.491" cy="8.575" r="0.5" fill="#3b82f6" opacity="0.9"/>
<circle cx="7.509" cy="12.538" r="0.5" fill="#3b82f6" opacity="0.9"/>
<circle cx="9.396" cy="12.324" r="0.5" fill="#3b82f6" opacity="0.9"/>
<circle cx="11.283" cy="11.71" r="0.5" fill="#3b82f6" opacity="0.9"/>
<circle cx="13.17" cy="10.769" r="0.5" fill="#3b82f6" opacity="0.9"/>
<circle cx="15.057" cy="9.614" r="0.5" fill="#3b82f6" opacity="0.9"/>
<circle cx="16.943" cy="8.386" r="0.5" fill="#3b82f6" opacity="0.9"/>
<circle cx="18.83" cy="7.231" r="0.5" fill="#3b82f6" opacity="0.9"/>
<circle cx="20.717" cy="6.29" r="0.5" fill="#3b82f6" opacity="0.9"/>
<circle cx="22.604" cy="5.676" r="0.5" fill="#3b82f6" opacity="0.9"/>
<circle cx="24.491" cy="5.462" r="0.5" fill="#3b82f6" opacity="0.9"/>
<circle cx="7.509" cy="9.425" r="0.5" fill="#3b82f6" opacity="0.9"/>
<circle cx="9.396" cy="9.638" r="0.5" fill="#3b82f6" opacity="0.9"/>
<circle cx="11.283" cy="10.252" r="0.5" fill="#3b82f6" opacity="0.9"/>
<circle cx="13.17" cy="11.193" r="0.5" fill="#3b82f6" opacity="0.9"/>
<circle cx="15.057" cy="12.348" r="0.5" fill="#3b82f6" opacity="0.9"/>
<circle cx="16.943" cy="13.577" r="0.5" fill="#3b82f6" opacity="0.9"/>
<circle cx="18.83" cy="14.731" r="0.5" fill="#3b82f6" opacity="0.9"/>
<circle cx="20.717" cy="15.672" r="0.5" fill="#3b82f6" opacity="0.9"/>
<circle cx="22.604" cy="16.287" r="0.5" fill="#3b82f6" opacity="0.9"/>
<circle cx="24.491" cy="16.5" r="0.5" fill="#3b82f6" opacity="0.9"/>
  <circle cx="16" cy="9" r="0.3" fill="#ef4444"/>
  <circle cx="27.8" cy="1.4" r="0.5" fill="#3b82f6"/><text x="28.7" y="1.75" font-size="1.2" fill="#334155">鱼位</text>
</svg>
