<svg xmlns="http://www.w3.org/2000/svg" viewBox="0 0 32 18" width="480" height="270">
  <rect width="32" height="18" fill="#f8fafc" stroke="#cbd5e1"/>
  <line x1="16" y1="0.6" x2="16" y2="16" stroke="#e2e8f0" stroke-width="0.25"/>
  <line x1="1" y1="9" x2="30" y2="9" stroke="#e2e8f0" stroke-width="0.25"/>
<circle cx="2" cy="9" r="0.42" fill="#3b82f6" opacity="0.9"/>
<circle cx="3.555" cy="6.118" r="0.42" fill="#3b82f6" opacity="0.9"/>
<circle cx="5.111" cy="4.008" r="0.42" fill="#3b82f6" opacity="0.9"/>
<circle cx="6.666" cy="3.235" r="0.42" fill="#3b82f6" opacity="0.9"/>
<circle cx="8.223" cy="4.008" r="0.42" fill="#3b82f6" opacity="0.9"/>
<circle cx="9.777" cy="6.118" r="0.42" fill="#3b82f6" opacity="0.9"/>
<circle cx="12.889" cy="11.882" r="0.42" fill="#3b82f6" opacity="0.9"/>
<circle cx="14.445" cy="13.992" r="0.42" fill="#3b82f6" opacity="0.9"/>
<circle cx="16" cy="14.765" r="0.42" fill="#3b82f6" opacity="0.9"/>
<circle cx="17.555" cy="13.992" r="0.42" fill="#3b82f6" opacity="0.9"/>
<circle cx="19.111" cy="11.882" r="0.42" fill="#3b82f6" opacity="0.9"/>
<circle cx="22.223" cy="6.118" r="0.42" fill="#3b82f6" opacity="0.9"/>
<circle cx="23.777" cy="4.008" r="0.42" fill="#3b82f6" opacity="0.9"/>
<circle cx="25.334" cy="3.235" r="0.42" fill="#3b82f6" opacity="0.9"/>
<circle cx="26.889" cy="4.008" r="0.42" fill="#3b82f6" opacity="0.9"/>
<circle cx="28.445" cy="6.118" r="0.42" fill="#3b82f6" opacity="0.9"/>
<circle cx="30" cy="9" r="0.42" fill="#3b82f6" opacity="0.9"/>
<circle cx="3.555" cy="11.882" r="0.42" fill="#3b82f6" opacity="0.9"/>
<circle cx="5.111" cy="13.992" r="0.42" fill="#3b82f6" opacity="0.9"/>
<circle cx="6.666" cy="14.765" r="0.42" fill="#3b82f6" opacity="0.9"/>
<circle cx="8.223" cy="13.992" r="0.42" fill="#3b82f6" opacity="0.9"/>
<circle cx="9.777" cy="11.882" r="0.42" fill="#3b82f6" opacity="0.9"/>
<circle cx="12.889" cy="6.118" r="0.42" fill="#3b82f6" opacity="0.9"/>
<circle cx="14.445" cy="4.008" r="0.42" fill="#3b82f6" opacity="0.9"/>
<circle cx="16" cy="3.235" r="0.42" fill="#3b82f6" opacity="0.9"/>
<circle cx="17.555" cy="4.008" r="0.42" fill="#3b82f6" opacity="0.9"/>
<circle cx="19.111" cy="6.118" r="0.42" fill="#3b82f6" opacity="0.9"/>
<circle cx="22.223" cy="11.882" r="0.42" fill="#3b82f6" opacity="0.9"/>
<circle cx="23.777" cy="13.992" r="0.42" fill="#3b82f6" opacity="0.9"/>
<circle cx="25.334" cy="14.765" r="0.42" fill="#3b82f6" opacity="0.9"/>
<circle cx="26.889" cy="13.992" r="0.42" fill="#3b82f6" opacity="0.9"/>
<circle cx="28.445" cy="11.882" r="0.42" fill="#3b82f6" opacity="0.9"/>
<circle cx="11.334" cy="9" r="0.42" fill="#3b82f6" opacity="0.9"/>
<circle cx="20.666" cy="9" r="0.42" fill="#3b82f6" opacity="0.9"/>
  <circle cx="16" cy="9" r="0.3" fill="#ef4444"/>
  <circle cx="27.8" cy="1.4" r="0.5" fill="#3b82f6"/><text x="28.7" y="1.75" font-size="1.2" fill="#334155">鱼位</text>
</svg>
