<svg xmlns="http://www.w3.org/2000/svg" viewBox="0 0 32 18" width="480" height="270">
<rect width="32" height="18" fill="#f0f9ff" stroke="#93c5fd"/>
<rect x="1" y="0.5" width="30" height="17" fill="none" stroke="#60a5fa" stroke-dasharray="0.5 0.5"/>
<line x1="16" y1="0.5" x2="16" y2="17.5" stroke="#bfdbfe" stroke-width="0.2"/>
<line x1="0.5" y1="9" x2="31.5" y2="9" stroke="#bfdbfe" stroke-width="0.2"/>
<text x="0.7" y="1.3" font-size="0.7" fill="#475569">外围双环</text>
<circle cx="16" cy="14.2" r="0.4" fill="#14b8a6" opacity="0.9"/>
<circle cx="19.677" cy="12.677" r="0.4" fill="#14b8a6" opacity="0.9"/>
<circle cx="20.804" cy="10.99" r="0.4" fill="#14b8a6" opacity="0.9"/>
<circle cx="20.804" cy="7.01" r="0.4" fill="#14b8a6" opacity="0.9"/>
<circle cx="19.677" cy="5.323" r="0.4" fill="#14b8a6" opacity="0.9"/>
<circle cx="16" cy="3.8" r="0.4" fill="#14b8a6" opacity="0.9"/>
<circle cx="12.323" cy="5.323" r="0.4" fill="#14b8a6" opacity="0.9"/>
<circle cx="11.196" cy="7.01" r="0.4" fill="#14b8a6" opacity="0.9"/>
<circle cx="11.196" cy="10.99" r="0.4" fill="#14b8a6" opacity="0.9"/>
<circle cx="12.323" cy="12.677" r="0.4" fill="#14b8a6" opacity="0.9"/>
<circle cx="16" cy="14.2" r="0.4" fill="#3b82f6" opacity="0.9"/>
<circle cx="20.65" cy="13.375" r="0.4" fill="#3b82f6" opacity="0.9"/>
<circle cx="22.499" cy="12.405" r="0.4" fill="#3b82f6" opacity="0.9"/>
<circle cx="23.823" cy="11.16" r="0.4" fill="#3b82f6" opacity="0.9"/>
<circle cx="24.512" cy="9.74" r="0.4" fill="#3b82f6" opacity="0.9"/>
<circle cx="24.512" cy="8.26" r="0.4" fill="#3b82f6" opacity="0.9"/>
<circle cx="23.823" cy="6.84" r="0.4" fill="#3b82f6" opacity="0.9"/>
<circle cx="22.499" cy="5.595" r="0.4" fill="#3b82f6" opacity="0.9"/>
<circle cx="20.65" cy="4.625" r="0.4" fill="#3b82f6" opacity="0.9"/>
<circle cx="16" cy="3.8" r="0.4" fill="#3b82f6" opacity="0.9"/>
<circle cx="11.35" cy="4.625" r="0.4" fill="#3b82f6" opacity="0.9"/>
<circle cx="9.501" cy="5.595" r="0.4" fill="#3b82f6" opacity="0.9"/>
<circle cx="8.177" cy="6.84" r="0.4" fill="#3b82f6" opacity="0.9"/>
<circle cx="7.488" cy="8.26" r="0.4" fill="#3b82f6" opacity="0.9"/>
<circle cx="7.488" cy="9.74" r="0.4" fill="#3b82f6" opacity="0.9"/>
<circle cx="8.177" cy="11.16" r="0.4" fill="#3b82f6" opacity="0.9"/>
<circle cx="9.501" cy="12.405" r="0.4" fill="#3b82f6" opacity="0.9"/>
<circle cx="11.35" cy="13.375" r="0.4" fill="#3b82f6" opacity="0.9"/>
<circle cx="16" cy="15.4" r="0.4" fill="#8b5cf6" opacity="0.9"/>
<circle cx="19.276" cy="15.087" r="0.4" fill="#8b5cf6" opacity="0.9"/>
<circle cx="22.231" cy="14.178" r="0.4" fill="#8b5cf6" opacity="0.9"/>
<circle cx="24.576" cy="12.762" r="0.4" fill="#8b5cf6" opacity="0.9"/>
<circle cx="26.081" cy="10.978" r="0.4" fill="#8b5cf6" opacity="0.9"/>
<circle cx="26.6" cy="9" r="0.4" fill="#8b5cf6" opacity="0.9"/>
<circle cx="26.081" cy="7.022" r="0.4" fill="#8b5cf6" opacity="0.9"/>
<circle cx="24.576" cy="5.238" r="0.4" fill="#8b5cf6" opacity="0.9"/>
<circle cx="22.231" cy="3.822" r="0.4" fill="#8b5cf6" opacity="0.9"/>
<circle cx="19.276" cy="2.913" r="0.4" fill="#8b5cf6" opacity="0.9"/>
<circle cx="16" cy="2.6" r="0.4" fill="#8b5cf6" opacity="0.9"/>
<circle cx="12.724" cy="2.913" r="0.4" fill="#8b5cf6" opacity="0.9"/>
<circle cx="9.769" cy="3.822" r="0.4" fill="#8b5cf6" opacity="0.9"/>
<circle cx="7.424" cy="5.238" r="0.4" fill="#8b5cf6" opacity="0.9"/>
<circle cx="5.919" cy="7.022" r="0.4" fill="#8b5cf6" opacity="0.9"/>
<circle cx="5.4" cy="9" r="0.4" fill="#8b5cf6" opacity="0.9"/>
<circle cx="5.919" cy="10.978" r="0.4" fill="#8b5cf6" opacity="0.9"/>
<circle cx="7.424" cy="12.762" r="0.4" fill="#8b5cf6" opacity="0.9"/>
<circle cx="9.769" cy="14.178" r="0.4" fill="#8b5cf6" opacity="0.9"/>
<circle cx="12.724" cy="15.087" r="0.4" fill="#8b5cf6" opacity="0.9"/>
<circle cx="19.6" cy="9" r="0.4" fill="#eab308" opacity="0.9"/>
<circle cx="18.546" cy="7.303" r="0.4" fill="#eab308" opacity="0.9"/>
<circle cx="16" cy="6.6" r="0.4" fill="#eab308" opacity="0.9"/>
<circle cx="13.454" cy="7.303" r="0.4" fill="#eab308" opacity="0.9"/>
<circle cx="12.4" cy="9" r="0.4" fill="#eab308" opacity="0.9"/>
<circle cx="13.454" cy="10.697" r="0.4" fill="#eab308" opacity="0.9"/>
<circle cx="16" cy="11.4" r="0.4" fill="#eab308" opacity="0.9"/>
<circle cx="18.546" cy="10.697" r="0.4" fill="#eab308" opacity="0.9"/>
<rect x="16.8" y="4.4" width="2" height="2" fill="#ef4444" fill-opacity="0.25" stroke="#ef4444" stroke-width="0.1"/>
<circle cx="17.8" cy="5.4" r="0.45" fill="#ef4444" opacity="0.9"/>
<rect x="13.2" y="4.4" width="2" height="2" fill="#ef4444" fill-opacity="0.25" stroke="#ef4444" stroke-width="0.1"/>
<circle cx="14.2" cy="5.4" r="0.45" fill="#ef4444" opacity="0.9"/>
<rect x="16.8" y="11.6" width="2" height="2" fill="#ef4444" fill-opacity="0.25" stroke="#ef4444" stroke-width="0.1"/>
<circle cx="17.8" cy="12.6" r="0.45" fill="#ef4444" opacity="0.9"/>
<rect x="13.2" y="11.6" width="2" height="2" fill="#ef4444" fill-opacity="0.25" stroke="#ef4444" stroke-width="0.1"/>
<circle cx="14.2" cy="12.6" r="0.45" fill="#ef4444" opacity="0.9"/>
<rect x="20.4" y="8" width="2" height="2" fill="#f97316" fill-opacity="0.25" stroke="#f97316" stroke-width="0.1"/>
<circle cx="21.4" cy="9" r="0.45" fill="#f97316" opacity="0.9"/>
<rect x="9.6" y="8" width="2" height="2" fill="#f97316" fill-opacity="0.25" stroke="#f97316" stroke-width="0.1"/>
<circle cx="10.6" cy="9" r="0.45" fill="#f97316" opacity="0.9"/>
<rect x="14" y="8" width="4" height="2" fill="#fde047" fill-opacity="0.3" stroke="#fde047" stroke-width="0.12"/>
<circle cx="16" cy="9" r="0.45" fill="#fde047" opacity="0.9"/>
<text x="28.2" y="17.4" font-size="0.55" fill="#64748b">■2×2中型/金灯笼 ■4×2金鲨 ●小鱼</text>
</svg>
