<svg xmlns="http://www.w3.org/2000/svg" viewBox="0 0 32 18" width="480" height="270">
<rect width="32" height="18" fill="#f0f9ff" stroke="#93c5fd"/>
<rect x="1" y="0.5" width="30" height="17" fill="none" stroke="#60a5fa" stroke-dasharray="0.5 0.5"/>
<line x1="16" y1="0.5" x2="16" y2="17" stroke="#bfdbfe" stroke-width="0.2"/>
<line x1="0.5" y1="9" x2="31" y2="9" stroke="#bfdbfe" stroke-width="0.2"/>
<circle cx="18.252" cy="10.3" r="0.4" fill="#14b8a6" opacity="0.9"/>
<circle cx="17.3" cy="11.251999999999999" r="0.4" fill="#14b8a6" opacity="0.9"/>
<circle cx="16" cy="11.6" r="0.4" fill="#14b8a6" opacity="0.9"/>
<circle cx="14.7" cy="11.251999999999999" r="0.4" fill="#14b8a6" opacity="0.9"/>
<circle cx="13.748000000000001" cy="10.3" r="0.4" fill="#14b8a6" opacity="0.9"/>
<circle cx="13.44" cy="9" r="0.4" fill="#14b8a6" opacity="0.9"/>
<circle cx="13.748000000000001" cy="7.7" r="0.4" fill="#14b8a6" opacity="0.9"/>
<circle cx="14.7" cy="6.748" r="0.4" fill="#14b8a6" opacity="0.9"/>
<circle cx="16" cy="6.4" r="0.4" fill="#14b8a6" opacity="0.9"/>
<circle cx="17.3" cy="6.748" r="0.4" fill="#14b8a6" opacity="0.9"/>
<circle cx="18.252" cy="7.7" r="0.4" fill="#14b8a6" opacity="0.9"/>
<circle cx="18.6" cy="9" r="0.4" fill="#14b8a6" opacity="0.9"/>
<circle cx="19.377" cy="10.95" r="0.4" fill="#14b8a6" opacity="0.9"/>
<circle cx="18.507" cy="11.988" r="0.4" fill="#14b8a6" opacity="0.9"/>
<circle cx="17.334" cy="12.665" r="0.4" fill="#14b8a6" opacity="0.9"/>
<circle cx="16" cy="12.9" r="0.4" fill="#14b8a6" opacity="0.9"/>
<circle cx="14.666" cy="12.665" r="0.4" fill="#14b8a6" opacity="0.9"/>
<circle cx="13.493" cy="11.988" r="0.4" fill="#14b8a6" opacity="0.9"/>
<circle cx="12.623000000000001" cy="10.95" r="0.4" fill="#14b8a6" opacity="0.9"/>
<circle cx="12.158999999999999" cy="9.677" r="0.4" fill="#14b8a6" opacity="0.9"/>
<circle cx="12.158999999999999" cy="8.323" r="0.4" fill="#14b8a6" opacity="0.9"/>
<circle cx="12.623000000000001" cy="7.05" r="0.4" fill="#14b8a6" opacity="0.9"/>
<circle cx="13.493" cy="6.0120000000000005" r="0.4" fill="#14b8a6" opacity="0.9"/>
<circle cx="14.666" cy="5.335" r="0.4" fill="#14b8a6" opacity="0.9"/>
<circle cx="16" cy="5.1" r="0.4" fill="#14b8a6" opacity="0.9"/>
<circle cx="17.334" cy="5.335" r="0.4" fill="#14b8a6" opacity="0.9"/>
<circle cx="18.507" cy="6.0120000000000005" r="0.4" fill="#14b8a6" opacity="0.9"/>
<circle cx="19.377" cy="7.05" r="0.4" fill="#14b8a6" opacity="0.9"/>
<circle cx="19.841" cy="8.323" r="0.4" fill="#14b8a6" opacity="0.9"/>
<circle cx="19.841" cy="9.677" r="0.4" fill="#14b8a6" opacity="0.9"/>
<circle cx="14.9" cy="7.9" r="0.4" fill="#eab308" opacity="0.9"/>
<circle cx="17.1" cy="7.9" r="0.4" fill="#eab308" opacity="0.9"/>
<circle cx="14.9" cy="10.1" r="0.4" fill="#eab308" opacity="0.9"/>
<circle cx="17.1" cy="10.1" r="0.4" fill="#eab308" opacity="0.9"/>
<circle cx="15.96" cy="9.03" r="0.4" fill="#fef08a" opacity="0.9"/>
<circle cx="20.9" cy="5.83" r="0.4" fill="#f97316" opacity="0.9"/>
<circle cx="14.19" cy="3.6399999999999997" r="0.4" fill="#f97316" opacity="0.9"/>
<circle cx="10.27" cy="8.6" r="0.4" fill="#f97316" opacity="0.9"/>
<circle cx="13.26" cy="14.190000000000001" r="0.4" fill="#ef4444" opacity="0.9"/>
<circle cx="20.7" cy="12.96" r="0.4" fill="#ef4444" opacity="0.9"/>
<circle cx="16" cy="9" r="0.22" fill="#ef4444" opacity="0.9"/>
<circle cx="27.8" cy="1.4" r="0.5" fill="#14b8a6"/><text x="28.7" y="1.75" font-size="1.1" fill="#334155">海马</text>
<circle cx="27.8" cy="2.75" r="0.5" fill="#eab308"/><text x="28.7" y="3.1" font-size="1.1" fill="#334155">小丑鱼</text>
<circle cx="27.8" cy="4.1" r="0.5" fill="#fef08a"/><text x="28.7" y="4.449999999999999" font-size="1.1" fill="#334155">金灯笼鱼</text>
<circle cx="27.8" cy="5.449999999999999" r="0.5" fill="#f97316"/><text x="28.7" y="5.799999999999999" font-size="1.1" fill="#334155">虾</text>
<circle cx="27.8" cy="6.799999999999999" r="0.5" fill="#ef4444"/><text x="28.7" y="7.149999999999999" font-size="1.1" fill="#334155">食人鱼</text>
</svg>