<svg xmlns="http://www.w3.org/2000/svg" viewBox="0 0 32 18" width="480" height="270">
<rect width="32" height="18" fill="#f0f9ff" stroke="#93c5fd"/>
<rect x="1" y="0.5" width="30" height="17" fill="none" stroke="#60a5fa" stroke-dasharray="0.5 0.5"/>
<line x1="16" y1="0.5" x2="16" y2="17.5" stroke="#bfdbfe" stroke-width="0.2"/>
<line x1="0.5" y1="9" x2="31.5" y2="9" stroke="#bfdbfe" stroke-width="0.2"/>
<text x="0.7" y="1.3" font-size="0.7" fill="#475569">左右竖排圆</text>
<circle cx="7.5" cy="1.5" r="0.4" fill="#14b8a6" opacity="0.9"/>
<circle cx="7.5" cy="2.5" r="0.4" fill="#14b8a6" opacity="0.9"/>
<circle cx="7.5" cy="3.5" r="0.4" fill="#14b8a6" opacity="0.9"/>
<circle cx="7.5" cy="4.5" r="0.4" fill="#14b8a6" opacity="0.9"/>
<circle cx="7.5" cy="5.5" r="0.4" fill="#14b8a6" opacity="0.9"/>
<circle cx="7.5" cy="6.5" r="0.4" fill="#14b8a6" opacity="0.9"/>
<circle cx="7.5" cy="7.5" r="0.4" fill="#14b8a6" opacity="0.9"/>
<circle cx="7.5" cy="8.5" r="0.4" fill="#14b8a6" opacity="0.9"/>
<circle cx="7.5" cy="9.5" r="0.4" fill="#14b8a6" opacity="0.9"/>
<circle cx="7.5" cy="10.5" r="0.4" fill="#14b8a6" opacity="0.9"/>
<circle cx="7.5" cy="11.5" r="0.4" fill="#14b8a6" opacity="0.9"/>
<circle cx="7.5" cy="12.5" r="0.4" fill="#14b8a6" opacity="0.9"/>
<circle cx="7.5" cy="13.5" r="0.4" fill="#14b8a6" opacity="0.9"/>
<circle cx="7.5" cy="14.5" r="0.4" fill="#14b8a6" opacity="0.9"/>
<circle cx="7.5" cy="15.5" r="0.4" fill="#14b8a6" opacity="0.9"/>
<circle cx="7.5" cy="16.5" r="0.4" fill="#14b8a6" opacity="0.9"/>
<circle cx="9.5" cy="1.5" r="0.4" fill="#14b8a6" opacity="0.9"/>
<circle cx="9.5" cy="2.5" r="0.4" fill="#14b8a6" opacity="0.9"/>
<circle cx="9.5" cy="3.5" r="0.4" fill="#14b8a6" opacity="0.9"/>
<circle cx="9.5" cy="4.5" r="0.4" fill="#14b8a6" opacity="0.9"/>
<circle cx="9.5" cy="5.5" r="0.4" fill="#14b8a6" opacity="0.9"/>
<circle cx="9.5" cy="6.5" r="0.4" fill="#14b8a6" opacity="0.9"/>
<circle cx="9.5" cy="7.5" r="0.4" fill="#14b8a6" opacity="0.9"/>
<circle cx="9.5" cy="8.5" r="0.4" fill="#14b8a6" opacity="0.9"/>
<circle cx="9.5" cy="9.5" r="0.4" fill="#14b8a6" opacity="0.9"/>
<circle cx="9.5" cy="10.5" r="0.4" fill="#14b8a6" opacity="0.9"/>
<circle cx="9.5" cy="11.5" r="0.4" fill="#14b8a6" opacity="0.9"/>
<circle cx="9.5" cy="12.5" r="0.4" fill="#14b8a6" opacity="0.9"/>
<circle cx="9.5" cy="13.5" r="0.4" fill="#14b8a6" opacity="0.9"/>
<circle cx="9.5" cy="14.5" r="0.4" fill="#14b8a6" opacity="0.9"/>
<circle cx="9.5" cy="15.5" r="0.4" fill="#14b8a6" opacity="0.9"/>
<circle cx="9.5" cy="16.5" r="0.4" fill="#14b8a6" opacity="0.9"/>
<circle cx="22.5" cy="1.5" r="0.4" fill="#14b8a6" opacity="0.9"/>
<circle cx="22.5" cy="2.5" r="0.4" fill="#14b8a6" opacity="0.9"/>
<circle cx="22.5" cy="3.5" r="0.4" fill="#14b8a6" opacity="0.9"/>
<circle cx="22.5" cy="4.5" r="0.4" fill="#14b8a6" opacity="0.9"/>
<circle cx="22.5" cy="5.5" r="0.4" fill="#14b8a6" opacity="0.9"/>
<circle cx="22.5" cy="12.5" r="0.4" fill="#14b8a6" opacity="0.9"/>
<circle cx="22.5" cy="13.5" r="0.4" fill="#14b8a6" opacity="0.9"/>
<circle cx="22.5" cy="14.5" r="0.4" fill="#14b8a6" opacity="0.9"/>
<circle cx="22.5" cy="15.5" r="0.4" fill="#14b8a6" opacity="0.9"/>
<circle cx="22.5" cy="16.5" r="0.4" fill="#14b8a6" opacity="0.9"/>
<circle cx="24.5" cy="1.5" r="0.4" fill="#14b8a6" opacity="0.9"/>
<circle cx="24.5" cy="2.5" r="0.4" fill="#14b8a6" opacity="0.9"/>
<circle cx="24.5" cy="3.5" r="0.4" fill="#14b8a6" opacity="0.9"/>
<circle cx="24.5" cy="4.5" r="0.4" fill="#14b8a6" opacity="0.9"/>
<circle cx="24.5" cy="5.5" r="0.4" fill="#14b8a6" opacity="0.9"/>
<circle cx="24.5" cy="6.5" r="0.4" fill="#14b8a6" opacity="0.9"/>
<circle cx="24.5" cy="7.5" r="0.4" fill="#14b8a6" opacity="0.9"/>
<circle cx="24.5" cy="8.5" r="0.4" fill="#14b8a6" opacity="0.9"/>
<circle cx="24.5" cy="9.5" r="0.4" fill="#14b8a6" opacity="0.9"/>
<circle cx="24.5" cy="10.5" r="0.4" fill="#14b8a6" opacity="0.9"/>
<circle cx="24.5" cy="11.5" r="0.4" fill="#14b8a6" opacity="0.9"/>
<circle cx="24.5" cy="12.5" r="0.4" fill="#14b8a6" opacity="0.9"/>
<circle cx="24.5" cy="13.5" r="0.4" fill="#14b8a6" opacity="0.9"/>
<circle cx="24.5" cy="14.5" r="0.4" fill="#14b8a6" opacity="0.9"/>
<circle cx="24.5" cy="15.5" r="0.4" fill="#14b8a6" opacity="0.9"/>
<circle cx="24.5" cy="16.5" r="0.4" fill="#14b8a6" opacity="0.9"/>
<circle cx="15.4" cy="7.2" r="0.4" fill="#3b82f6" opacity="0.9"/>
<circle cx="16.6" cy="7.2" r="0.4" fill="#3b82f6" opacity="0.9"/>
<circle cx="14.2" cy="8.4" r="0.4" fill="#3b82f6" opacity="0.9"/>
<circle cx="17.8" cy="8.4" r="0.4" fill="#3b82f6" opacity="0.9"/>
<circle cx="14.2" cy="9.6" r="0.4" fill="#3b82f6" opacity="0.9"/>
<circle cx="17.8" cy="9.6" r="0.4" fill="#3b82f6" opacity="0.9"/>
<circle cx="15.4" cy="10.8" r="0.4" fill="#3b82f6" opacity="0.9"/>
<circle cx="16.6" cy="10.8" r="0.4" fill="#3b82f6" opacity="0.9"/>
<rect x="17.6" y="5.4" width="2" height="2" fill="#f97316" fill-opacity="0.25" stroke="#f97316" stroke-width="0.1"/>
<circle cx="18.6" cy="6.4" r="0.45" fill="#f97316" opacity="0.9"/>
<rect x="12.4" y="5.4" width="2" height="2" fill="#f97316" fill-opacity="0.25" stroke="#f97316" stroke-width="0.1"/>
<circle cx="13.4" cy="6.4" r="0.45" fill="#f97316" opacity="0.9"/>
<rect x="12.4" y="10.6" width="2" height="2" fill="#f97316" fill-opacity="0.25" stroke="#f97316" stroke-width="0.1"/>
<circle cx="13.4" cy="11.6" r="0.45" fill="#f97316" opacity="0.9"/>
<rect x="17.6" y="10.6" width="2" height="2" fill="#f97316" fill-opacity="0.25" stroke="#f97316" stroke-width="0.1"/>
<circle cx="18.6" cy="11.6" r="0.45" fill="#f97316" opacity="0.9"/>
<rect x="21.4" y="6.3" width="2" height="2" fill="#ef4444" fill-opacity="0.25" stroke="#ef4444" stroke-width="0.1"/>
<circle cx="22.4" cy="7.3" r="0.45" fill="#ef4444" opacity="0.9"/>
<rect x="21.4" y="9.7" width="2" height="2" fill="#ef4444" fill-opacity="0.25" stroke="#ef4444" stroke-width="0.1"/>
<circle cx="22.4" cy="10.7" r="0.45" fill="#ef4444" opacity="0.9"/>
<rect x="15" y="8" width="2" height="2" fill="#fef08a" fill-opacity="0.25" stroke="#fef08a" stroke-width="0.1"/>
<circle cx="16" cy="9" r="0.45" fill="#fef08a" opacity="0.9"/>
<text x="28.2" y="17.4" font-size="0.55" fill="#64748b">■2×2中型/金灯笼 ■4×2金鲨 ●小鱼</text>
</svg>
